#!OML:ASF F:\VICON\USERDATA\INSTALL\rory3\rory3.ASF
:FULLY-SPECIFIED
:DEGREES
712
root 0.256431 17.9574 -0.223006 2.65851 -33.2035 -0.040285
lowerback -0.741416 -1.53852 -3.53752
upperback -0.602794 -2.03631 2.017
thorax -0.00679563 -1.01035 4.04226
lowerneck -18.6212 -3.63153 -11.612
upperneck 25.9083 -3.31948 5.86611
head 11.9051 -1.94372 3.6307
rclavicle 7.50164e-014 -3.97569e-015
rhumerus -23.9886 44.5284 -85.4449
rradius 118.453
rwrist 39.9755
rhand -13.8941 17.6119
rfingers 7.12502
rthumb 12.2312 -12.0105
lclavicle 7.50164e-014 -3.97569e-015
lhumerus -38.8283 -26.5367 101.316
lradius 90.9744
lwrist 8.1889
lhand -16.0032 22.9863
lfingers 7.12502
lthumb 10.1971 52.7191
rfemur -8.17328 4.27174 12.7839
rtibia 22.6227
rfoot -15.607 -8.55209
rtoes 2.56961
lfemur 1.33125 0.927062 -21.8838
ltibia 13.3947
lfoot -11.5729 10.4028
ltoes -12.9905
713
root 0.254344 17.957 -0.220369 2.67943 -33.3233 -0.0562774
lowerback -0.762525 -1.51307 -3.57677
upperback -0.623625 -2.00184 2.07507
thorax -0.0163269 -0.992499 4.12484
lowerneck -18.4982 -3.64994 -11.5958
upperneck 25.7285 -3.35821 5.85755
head 11.8143 -1.95747 3.61455
rclavicle 5.60635e-014 -1.11319e-014
rhumerus -24.0572 44.5952 -85.386
rradius 118.07
rwrist 40.123
rhand -15.0832 18.4229
rfingers 7.12502
rthumb 11.0845 -11.2644
lclavicle 5.60635e-014 -1.11319e-014
lhumerus -38.8825 -26.3716 101.386
lradius 91.0514
lwrist 7.98278
lhand -15.1676 22.4746
lfingers 7.12502
lthumb 11.0031 52.1662
rfemur -8.20568 4.34643 12.7805
rtibia 22.6294
rfoot -15.5939 -8.48539
rtoes 2.66029
lfemur 1.3267 0.92566 -21.8925
ltibia 13.4282
lfoot -11.5627 10.5499
ltoes -12.837
714
root 0.253376 17.9578 -0.232882 2.67811 -33.1958 -0.0961326
lowerback -0.581083 -1.55255 -3.65578
upperback -0.646871 -2.05993 2.12992
thorax -0.131544 -1.01841 4.23142
lowerneck -18.431 -3.74224 -11.5833
upperneck 25.5767 -3.50858 5.89486
head 11.7582 -2.01592 3.59942
rclavicle 2.64818e-014 -7.95139e-016
rhumerus -24.0315 44.559 -85.3117
rradius 117.647
rwrist 40.3606
rhand -16.5002 19.4499
rfingers 7.12502
rthumb 9.71759 -10.3059
lclavicle 2.64818e-014 -7.95139e-016
lhumerus -38.8696 -26.2651 101.394
lradius 91.1649
lwrist 7.86172
lhand -14.5579 22.0818
lfingers 7.12502
lthumb 11.5911 51.7412
rfemur -8.18218 4.33839 12.8651
rtibia 22.6396
rfoot -15.6748 -8.54599
rtoes 3.3366
lfemur 1.29222 1.14617 -21.7627
ltibia 13.4464
lfoot -11.5703 10.1808
ltoes -12.8439
715
root 0.25271 17.9609 -0.245792 2.72341 -33.0126 -0.100318
lowerback -0.480535 -1.60552 -3.71421
upperback -0.675526 -2.13371 2.14075
thorax -0.207487 -1.05292 4.27852
lowerneck -18.553 -3.82361 -11.5381
upperneck 25.6839 -3.66697 6.02626
head 11.8413 -2.06692 3.61881
rclavicle -3.2582e-014 -1.11319e-014
rhumerus -24.0411 44.4799 -85.2673
rradius 117.273
rwrist 40.5652
rhand -17.8011 20.4621
rfingers 7.12502
rthumb 8.46224 -9.34836
lclavicle -3.2582e-014 -1.11319e-014
lhumerus -38.8454 -26.2827 101.391
lradius 91.2993
lwrist 7.78421
lhand -14.2151 21.8218
lfingers 7.12502
lthumb 11.9217 51.4623
rfemur -8.21747 4.28644 12.9248
rtibia 22.6466
rfoot -15.7271 -8.69516
rtoes 3.59638
lfemur 1.17997 1.28996 -21.6703
ltibia 13.4564
lfoot -11.5243 9.87551
ltoes -12.9501
716
root 0.252747 17.961 -0.246266 2.7148 -33 -0.04398
lowerback -0.506154 -1.61292 -3.71074
upperback -0.678121 -2.14273 2.10821
thorax -0.196226 -1.05764 4.24196
lowerneck -18.675 -3.81753 -11.5804
upperneck 25.8161 -3.70139 6.25294
head 11.925 -2.05932 3.7102
rclavicle -1.38031e-014 8.74653e-015
rhumerus -24.097 44.4339 -85.3087
rradius 116.847
rwrist 40.8549
rhand -19.1771 21.3156
rfingers 7.12502
rthumb 7.13425 -8.54416
lclavicle -1.38031e-014 8.74653e-015
lhumerus -38.8149 -26.3616 101.391
lradius 91.3921
lwrist 7.60909
lhand -13.9048 21.6535
lfingers 7.12502
lthumb 12.2209 51.2764
rfemur -8.25124 4.24992 12.8649
rtibia 22.6648
rfoot -15.7664 -8.64326
rtoes 4.11234
lfemur 1.15957 1.29786 -21.7229
ltibia 13.4483
lfoot -11.5084 9.87377
ltoes -12.9757
717
root 0.252196 17.9601 -0.245014 2.70271 -33.015 -0.013343
lowerback -0.502565 -1.62294 -3.72107
upperback -0.699136 -2.15633 2.11666
thorax -0.217783 -1.06354 4.25694
lowerneck -18.7084 -3.82764 -11.6624
upperneck 25.8402 -3.72025 6.36794
head 11.9471 -2.06147 3.76576
rclavicle -4.80873e-014 1.59028e-015
rhumerus -24.1705 44.5001 -85.3663
rradius 116.369
rwrist 41.2654
rhand -20.6163 22.0144
rfingers 7.12502
rthumb 5.74479 -7.8877
lclavicle -4.80873e-014 1.59028e-015
lhumerus -38.8813 -26.4033 101.476
lradius 91.4959
lwrist 7.35517
lhand -13.6041 21.5171
lfingers 7.12502
lthumb 12.5108 51.1225
rfemur -8.26453 4.19899 12.8255
rtibia 22.6936
rfoot -15.8176 -8.5548
rtoes 3.91465
lfemur 1.18236 1.26904 -21.7642
ltibia 13.4039
lfoot -11.4749 9.93065
ltoes -12.9857
718
root 0.251117 17.9597 -0.24307 2.65575 -33.0586 0.0159016
lowerback -0.514552 -1.61218 -3.70918
upperback -0.673241 -2.14146 2.10662
thorax -0.186743 -1.05731 4.23908
lowerneck -18.6966 -3.89634 -11.7892
upperneck 25.7698 -3.81935 6.51368
head 11.9342 -2.09834 3.8255
rclavicle -7.1724e-014 1.98785e-015
rhumerus -24.1748 44.525 -85.3272
rradius 115.979
rwrist 41.6096
rhand -21.8707 22.6314
rfingers 7.12502
rthumb 4.53363 -7.30007
lclavicle -7.1724e-014 1.98785e-015
lhumerus -38.8523 -26.4533 101.519
lradius 91.5394
lwrist 7.16769
lhand -13.0892 21.2924
lfingers 7.12502
lthumb 13.0072 50.8669
rfemur -8.24906 4.21686 12.7914
rtibia 22.7308
rfoot -15.8155 -8.48852
rtoes 3.39568
lfemur 1.26262 1.20308 -21.8053
ltibia 13.3394
lfoot -11.4554 10.005
ltoes -12.7726
719
root 0.250555 17.9638 -0.251652 2.75261 -32.9783 0.0142863
lowerback -0.5208 -1.62055 -3.72749
upperback -0.697923 -2.15247 2.08755
thorax -0.207577 -1.06182 4.22982
lowerneck -18.6619 -3.95396 -11.8351
upperneck 25.6719 -3.94204 6.69918
head 11.9071 -2.1325 3.88248
rclavicle -2.80162e-014 -5.1684e-015
rhumerus -24.187 44.4795 -85.3277
rradius 115.647
rwrist 41.8746
rhand -23.1448 23.2556
rfingers 7.12502
rthumb 3.30324 -6.69858
lclavicle -2.80162e-014 -5.1684e-015
lhumerus -38.8135 -26.6403 101.505
lradius 91.6166
lwrist 7.04501
lhand -12.5334 21.1704
lfingers 7.12502
lthumb 13.543 50.7099
rfemur -8.36091 4.1951 12.8194
rtibia 22.7453
rfoot -15.7822 -8.58505
rtoes 3.0933
lfemur 1.14204 1.28997 -21.7551
ltibia 13.2898
lfoot -11.4178 9.83328
ltoes -12.7519
720
root 0.250335 17.9611 -0.246418 2.65352 -33.0588 0.0826394
lowerback -0.545475 -1.58249 -3.72077
upperback -0.678066 -2.10068 2.04827
thorax -0.18024 -1.03686 4.18472
lowerneck -18.5864 -3.97107 -11.7412
upperneck 25.6251 -4.00624 6.70232
head 11.8783 -2.15194 3.85647
rclavicle -7.65756e-014 7.95139e-016
rhumerus -24.3108 44.4948 -85.3822
rradius 115.334
rwrist 42.0627
rhand -24.4194 23.9977
rfingers 7.12502
rthumb 2.07234 -5.97198
lclavicle -7.65756e-014 7.95139e-016
lhumerus -38.8087 -26.8304 101.578
lradius 91.6277
lwrist 6.94096
lhand -12.4421 21.0177
lfingers 7.12502
lthumb 13.631 50.5514
rfemur -8.31006 4.13217 12.738
rtibia 22.7529
rfoot -15.6902 -8.49174
rtoes 2.84079
lfemur 1.27212 1.15339 -21.8685
ltibia 13.2331
lfoot -11.3883 10.0489
ltoes -12.7856
721
root 0.249421 17.9638 -0.252262 2.7698 -32.9766 0.0749249
lowerback -0.602713 -1.60065 -3.73481
upperback -0.765179 -2.12363 2.06225
thorax -0.234405 -1.04551 4.2068
lowerneck -18.4455 -3.96139 -11.6602
upperneck 25.6253 -4.02933 6.67189
head 11.8497 -2.16102 3.8278
rclavicle -4.99881e-014 1.63003e-014
rhumerus -24.4621 44.5201 -85.4396
rradius 114.972
rwrist 42.267
rhand -25.4678 24.545
rfingers 7.12502
rthumb 1.05974 -5.43208
lclavicle -4.99881e-014 1.63003e-014
lhumerus -38.7752 -27.0656 101.631
lradius 91.5724
lwrist 7.10608
lhand -12.5649 20.9812
lfingers 7.12502
lthumb 13.5125 50.5228
rfemur -8.42106 4.07288 12.7526
rtibia 22.7493
rfoot -15.7211 -8.49047
rtoes 2.98811
lfemur 1.14685 1.10954 -21.8399
ltibia 13.193
lfoot -11.3389 9.95995
ltoes -12.7476
722
root 0.248884 17.966 -0.259855 2.79911 -32.9083 0.0708112
lowerback -0.547833 -1.60249 -3.77537
upperback -0.817057 -2.12806 2.08009
thorax -0.31599 -1.04471 4.25089
lowerneck -18.3016 -3.95117 -11.5985
upperneck 25.5696 -4.05006 6.66783
head 11.7996 -2.16623 3.81161
rclavicle 3.26131e-014 -1.98785e-015
rhumerus -24.5682 44.4797 -85.4685
rradius 114.617
rwrist 42.4632
rhand -26.3523 25.0112
rfingers 7.12502
rthumb 0.205516 -4.9684
lclavicle 3.26131e-014 -1.98785e-015
lhumerus -38.6957 -27.301 101.671
lradius 91.5081
lwrist 7.37154
lhand -12.632 21.0182
lfingers 7.12502
lthumb 13.4479 50.5641
rfemur -8.43253 4.04599 12.7739
rtibia 22.7247
rfoot -15.7494 -8.48805
rtoes 3.84702
lfemur 1.08524 1.14856 -21.7979
ltibia 13.2017
lfoot -11.3399 9.83874
ltoes -12.9147
723
root 0.248959 17.9628 -0.25398 2.69411 -33.0697 0.0822852
lowerback -0.563088 -1.5348 -3.74199
upperback -0.731511 -2.03678 2.07304
thorax -0.230114 -1.00266 4.22357
lowerneck -18.3294 -3.98374 -11.5473
upperneck 25.4944 -4.10233 6.65829
head 11.7803 -2.18335 3.78898
rclavicle -1.49772e-014 1.39149e-014
rhumerus -24.4935 44.4691 -85.3871
rradius 114.25
rwrist 42.5992
rhand -27.5204 25.3979
rfingers 7.12502
rthumb -0.922744 -4.57988
lclavicle -1.49772e-014 1.39149e-014
lhumerus -38.6156 -27.4907 101.759
lradius 91.4948
lwrist 7.42274
lhand -12.4539 21.0603
lfingers 7.12502
lthumb 13.6196 50.5947
rfemur -8.33656 4.06237 12.7352
rtibia 22.6837
rfoot -15.6839 -8.34258
rtoes 4.54266
lfemur 1.21481 0.95389 -21.8795
ltibia 13.2434
lfoot -11.4062 10.2264
ltoes -12.8149
724
root 0.248304 17.966 -0.272928 2.80383 -32.8703 0.0185057
lowerback -0.426207 -1.5918 -3.83153
upperback -0.756794 -2.1173 2.12309
thorax -0.319743 -1.04007 4.32999
lowerneck -18.4167 -3.99282 -11.4738
upperneck 25.4378 -4.1239 6.65917
head 11.776 -2.18253 3.77176
rclavicle 2.56619e-014 7.55382e-015
rhumerus -24.368 44.4844 -85.3158
rradius 113.901
rwrist 42.6704
rhand -28.6997 25.8308
rfingers 7.12502
rthumb -2.06169 -4.13896
lclavicle 2.56619e-014 7.55382e-015
lhumerus -38.596 -27.6682 101.84
lradius 91.5015
lwrist 7.21666
lhand -12.1644 21.0697
lfingers 7.12502
lthumb 13.8986 50.5852
rfemur -8.39508 3.99521 12.8628
rtibia 22.6561
rfoot -15.7106 -8.49684
rtoes 4.44167
lfemur 1.02972 1.22847 -21.6978
ltibia 13.2895
lfoot -11.3614 9.7642
ltoes -12.8488
725
root 0.2478 17.9627 -0.25994 2.78846 -33.161 -0.0272132
lowerback -0.629159 -1.4831 -3.66428
upperback -0.65438 -1.96559 2.08294
thorax -0.123138 -0.971124 4.18736
lowerneck -18.4814 -3.98417 -11.3921
upperneck 25.408 -4.13796 6.69634
head 11.777 -2.17411 3.76901
rclavicle 2.97556e-015 -7.95139e-016
rhumerus -24.2831 44.4059 -85.323
rradius 113.558
rwrist 42.6645
rhand -29.4441 26.3638
rfingers 7.12502
rthumb -2.78058 -3.59781
lclavicle 2.97556e-015 -7.95139e-016
lhumerus -38.5274 -27.9093 101.886
lradius 91.4561
lwrist 6.92002
lhand -12.0068 21.2949
lfingers 7.12502
lthumb 14.0505 50.8
rfemur -8.4017 4.15176 12.8484
rtibia 22.6514
rfoot -15.6037 -8.40202
rtoes 3.46972
lfemur 1.12927 0.983871 -21.7756
ltibia 13.3164
lfoot -11.4227 10.26
ltoes -12.6262
726
root 0.248453 17.963 -0.27085 2.74684 -33.0973 0.00945904
lowerback -0.500046 -1.49275 -3.76672
upperback -0.625475 -1.98205 2.09992
thorax -0.160204 -0.978717 4.26594
lowerneck -18.6799 -4.01078 -11.3678
upperneck 25.4631 -4.16683 6.71859
head 11.8409 -2.17915 3.76941
rclavicle 4.27014e-014 7.95139e-016
rhumerus -24.1698 44.3565 -85.2679
rradius 113.275
rwrist 42.5759
rhand -29.7538 26.9687
rfingers 7.12502
rthumb -3.07967 -2.98882
lclavicle 4.27014e-014 7.95139e-016
lhumerus -38.5278 -28.0963 101.995
lradius 91.475
lwrist 6.55956
lhand -12.2617 21.4518
lfingers 7.12502
lthumb 13.8048 50.9738
rfemur -8.37891 4.17256 12.8461
rtibia 22.6414
rfoot -15.6158 -8.47726
rtoes 2.99466
lfemur 1.09513 1.09148 -21.7571
ltibia 13.3497
lfoot -11.4218 10.0664
ltoes -12.7449
